Source-HROTx_VROTn_SLENn_SANGn.ufo
<glyph name="exclam" format="2">
  <advance width="205"/>
  <unicode hex="0021"/>
  <outline>
    <contour>
      <point x="94" y="194" type="line"/>
      <point x="191" y="137" type="line"/>
      <point x="191" y="137"/>
      <point x="191" y="137"/>
      <point x="191" y="137" type="curve"/>
      <point x="288" y="80" type="line"/>
      <point x="280" y="66" type="line"/>
      <point x="183" y="123" type="line"/>
      <point x="183" y="123"/>
      <point x="183" y="123"/>
      <point x="183" y="123" type="curve"/>
      <point x="86" y="180" type="line"/>
    </contour>
    <contour>
      <point x="163" y="75" type="line"/>
      <point x="179" y="132" type="line" smooth="yes"/>
      <point x="179" y="132"/>
      <point x="179" y="132"/>
      <point x="179" y="132" type="curve" smooth="yes"/>
      <point x="196" y="189" type="line"/>
      <point x="212" y="185" type="line"/>
      <point x="195" y="128" type="line" smooth="yes"/>
      <point x="195" y="128"/>
      <point x="195" y="128"/>
      <point x="195" y="128" type="curve" smooth="yes"/>
      <point x="179" y="71" type="line"/>
    </contour>
    <contour>
      <point x="69" y="282" type="line"/>
      <point x="-89" y="505" type="line"/>
      <point x="-75" y="515" type="line"/>
      <point x="83" y="292" type="line"/>
    </contour>
    <contour>
      <point x="133" y="248" type="line"/>
      <point x="72" y="280" type="line" smooth="yes"/>
      <point x="68" y="282"/>
      <point x="85" y="288"/>
      <point x="83" y="284" type="curve" smooth="yes"/>
      <point x="68" y="252" type="line"/>
      <point x="54" y="258" type="line"/>
      <point x="69" y="290" type="line" smooth="yes"/>
      <point x="71" y="295"/>
      <point x="76" y="296"/>
      <point x="80" y="294" type="curve" smooth="yes"/>
      <point x="141" y="262" type="line"/>
    </contour>
    <contour>
      <point x="-176" y="561" type="line"/>
      <point x="-79" y="517" type="line" smooth="yes"/>
      <point x="-75" y="516"/>
      <point x="-90" y="512"/>
      <point x="-88" y="515" type="curve" smooth="yes"/>
      <point x="-52" y="559" type="line"/>
      <point x="-40" y="549" type="line"/>
      <point x="-76" y="505" type="line" smooth="yes"/>
      <point x="-78" y="502"/>
      <point x="-82" y="501"/>
      <point x="-85" y="503" type="curve" smooth="yes"/>
      <point x="-182" y="547" type="line"/>
    </contour>
  </outline>
</glyph>
<glyph name="percent" format="2">
  <advance width="723"/>
  <unicode hex="0025"/>
  <outline>
    <contour>
      <point x="137" y="303" type="curve"/>
      <point x="137" y="303"/>
      <point x="137" y="303"/>
      <point x="137" y="303" type="curve"/>
      <point x="187" y="303"/>
      <point x="185" y="346"/>
      <point x="142" y="406" type="curve" smooth="yes"/>
      <point x="142" y="406"/>
      <point x="143" y="406"/>
      <point x="142" y="406" type="curve" smooth="yes"/>
      <point x="96" y="471"/>
      <point x="28" y="518"/>
      <point x="-26" y="518" type="curve"/>
      <point x="-26" y="518"/>
      <point x="-26" y="518"/>
      <point x="-26" y="518" type="curve"/>
      <point x="-76" y="518"/>
      <point x="-73" y="475"/>
      <point x="-31" y="416" type="curve" smooth="yes"/>
      <point x="-31" y="416"/>
      <point x="-31" y="416"/>
      <point x="-31" y="416" type="curve" smooth="yes"/>
      <point x="15" y="350"/>
      <point x="83" y="303"/>
    </contour>
    <contour>
      <point x="659" y="110" type="curve"/>
      <point x="659" y="110"/>
      <point x="659" y="110"/>
      <point x="659" y="110" type="curve"/>
      <point x="710" y="110"/>
      <point x="707" y="153"/>
      <point x="664" y="212" type="curve" smooth="yes"/>
      <point x="664" y="212"/>
      <point x="664" y="212"/>
      <point x="664" y="212" type="curve" smooth="yes"/>
      <point x="618" y="278"/>
      <point x="551" y="324"/>
      <point x="496" y="324" type="curve"/>
      <point x="496" y="324"/>
      <point x="496" y="324"/>
      <point x="496" y="324" type="curve"/>
      <point x="446" y="324"/>
      <point x="448" y="282"/>
      <point x="491" y="222" type="curve" smooth="yes"/>
      <point x="491" y="222"/>
      <point x="490" y="222"/>
      <point x="491" y="222" type="curve" smooth="yes"/>
      <point x="537" y="157"/>
      <point x="605" y="110"/>
    </contour>
    <contour>
      <point x="137" y="287" type="curve"/>
      <point x="79" y="287"/>
      <point x="5" y="336"/>
      <point x="-45" y="406" type="curve" smooth="yes"/>
      <point x="-45" y="406"/>
      <point x="-45" y="406"/>
      <point x="-45" y="406" type="curve" smooth="yes"/>
      <point x="-97" y="481"/>
      <point x="-88" y="534"/>
      <point x="-26" y="534" type="curve"/>
      <point x="-26" y="534"/>
      <point x="-26" y="534"/>
      <point x="-26" y="534" type="curve"/>
      <point x="32" y="534"/>
      <point x="106" y="485"/>
      <point x="156" y="416" type="curve" smooth="yes"/>
      <point x="156" y="416"/>
      <point x="156" y="416"/>
      <point x="156" y="416" type="curve" smooth="yes"/>
      <point x="209" y="340"/>
      <point x="199" y="287"/>
      <point x="137" y="287" type="curve"/>
      <point x="137" y="287"/>
      <point x="137" y="287"/>
    </contour>
    <contour>
      <point x="659" y="94" type="curve"/>
      <point x="601" y="94"/>
      <point x="527" y="143"/>
      <point x="477" y="212" type="curve" smooth="yes"/>
      <point x="477" y="212"/>
      <point x="477" y="212"/>
      <point x="477" y="212" type="curve" smooth="yes"/>
      <point x="424" y="288"/>
      <point x="434" y="340"/>
      <point x="496" y="340" type="curve"/>
      <point x="496" y="340"/>
      <point x="496" y="340"/>
      <point x="496" y="340" type="curve"/>
      <point x="555" y="340"/>
      <point x="628" y="292"/>
      <point x="678" y="222" type="curve" smooth="yes"/>
      <point x="678" y="222"/>
      <point x="677" y="222"/>
      <point x="678" y="222" type="curve" smooth="yes"/>
      <point x="731" y="148"/>
      <point x="722" y="94"/>
      <point x="659" y="94" type="curve"/>
      <point x="659" y="94"/>
      <point x="659" y="94"/>
    </contour>
    <contour>
      <point x="305" y="518" type="line"/>
      <point x="344" y="111" type="line"/>
      <point x="328" y="109" type="line"/>
      <point x="289" y="516" type="line"/>
    </contour>
    <contour>
      <point x="379" y="67" type="line"/>
      <point x="331" y="104" type="line" smooth="yes"/>
      <point x="328" y="106"/>
      <point x="344" y="107"/>
      <point x="341" y="104" type="curve" smooth="yes"/>
      <point x="299" y="67" type="line"/>
      <point x="289" y="79" type="line"/>
      <point x="331" y="116" type="line" smooth="yes"/>
      <point x="334" y="119"/>
      <point x="338" y="119"/>
      <point x="341" y="116" type="curve" smooth="yes"/>
      <point x="389" y="79" type="line"/>
    </contour>
    <contour>
      <point x="253" y="560" type="line"/>
      <point x="302" y="523" type="line" smooth="yes"/>
      <point x="305" y="521"/>
      <point x="289" y="520"/>
      <point x="292" y="523" type="curve" smooth="yes"/>
      <point x="333" y="560" type="line"/>
      <point x="343" y="548" type="line"/>
      <point x="302" y="511" type="line" smooth="yes"/>
      <point x="300" y="508"/>
      <point x="295" y="508"/>
      <point x="292" y="511" type="curve" smooth="yes"/>
      <point x="243" y="548" type="line"/>
    </contour>
  </outline>
</glyph>
<glyph name="zero" format="2">
  <advance width="456"/>
  <unicode hex="0030"/>
  <outline>
    <contour>
      <point x="36" y="530" type="curve"/>
      <point x="36" y="530"/>
      <point x="36" y="530"/>
      <point x="36" y="530" type="curve"/>
      <point x="130" y="530"/>
      <point x="251" y="442"/>
      <point x="340" y="318" type="curve" smooth="yes"/>
      <point x="340" y="318"/>
      <point x="340" y="318"/>
      <point x="340" y="318" type="curve" smooth="yes"/>
      <point x="431" y="187"/>
      <point x="428" y="98"/>
      <point x="330" y="98" type="curve"/>
      <point x="330" y="98"/>
      <point x="330" y="98"/>
      <point x="330" y="98" type="curve"/>
      <point x="236" y="98"/>
      <point x="115" y="185"/>
      <point x="26" y="309" type="curve" smooth="yes"/>
      <point x="26" y="309"/>
      <point x="26" y="309"/>
      <point x="26" y="309" type="curve" smooth="yes"/>
      <point x="-65" y="441"/>
      <point x="-62" y="530"/>
    </contour>
    <contour>
      <point x="36" y="514" type="curve"/>
      <point x="-50" y="514"/>
      <point x="-41" y="433"/>
      <point x="40" y="319" type="curve" smooth="yes"/>
      <point x="40" y="319"/>
      <point x="39" y="319"/>
      <point x="40" y="319" type="curve" smooth="yes"/>
      <point x="125" y="199"/>
      <point x="240" y="114"/>
      <point x="330" y="114" type="curve"/>
      <point x="330" y="114"/>
      <point x="330" y="114"/>
      <point x="330" y="114" type="curve"/>
      <point x="416" y="114"/>
      <point x="407" y="195"/>
      <point x="326" y="308" type="curve" smooth="yes"/>
      <point x="326" y="308"/>
      <point x="326" y="308"/>
      <point x="326" y="308" type="curve" smooth="yes"/>
      <point x="241" y="428"/>
      <point x="126" y="514"/>
      <point x="36" y="514" type="curve"/>
      <point x="36" y="514"/>
      <point x="36" y="514"/>
    </contour>
  </outline>
</glyph>
<glyph name="B" format="2">
  <advance width="419"/>
  <unicode hex="0042"/>
  <outline>
    <contour>
      <point x="158" y="328" type="line"/>
      <point x="221" y="328"/>
      <point x="239" y="358"/>
      <point x="200" y="413" type="curve" smooth="yes"/>
      <point x="199" y="413"/>
      <point x="199" y="413"/>
      <point x="199" y="413" type="curve" smooth="yes"/>
      <point x="162" y="466"/>
      <point x="96" y="502"/>
      <point x="29" y="502" type="curve"/>
      <point x="29" y="502"/>
      <point x="29" y="502"/>
      <point x="29" y="502" type="curve"/>
      <point x="-74" y="502" type="line" smooth="yes"/>
      <point x="-80" y="502"/>
      <point x="-71" y="520"/>
      <point x="-67" y="515" type="curve" smooth="yes"/>
      <point x="211" y="122" type="line" smooth="yes"/>
      <point x="212" y="120"/>
      <point x="201" y="125"/>
      <point x="204" y="125" type="curve" smooth="yes"/>
      <point x="319" y="125" type="line"/>
      <point x="319" y="125"/>
      <point x="319" y="125"/>
      <point x="319" y="125" type="curve"/>
      <point x="381" y="125"/>
      <point x="395" y="156"/>
      <point x="356" y="211" type="curve" smooth="yes"/>
      <point x="356" y="211"/>
      <point x="356" y="211"/>
      <point x="356" y="211" type="curve" smooth="yes"/>
      <point x="312" y="274"/>
      <point x="237" y="312"/>
      <point x="161" y="312" type="curve"/>
      <point x="161" y="328" type="line"/>
      <point x="243" y="328"/>
      <point x="322" y="288"/>
      <point x="370" y="221" type="curve" smooth="yes"/>
      <point x="370" y="221"/>
      <point x="370" y="221"/>
      <point x="370" y="221" type="curve" smooth="yes"/>
      <point x="417" y="154"/>
      <point x="393" y="109"/>
      <point x="319" y="109" type="curve"/>
      <point x="319" y="109"/>
      <point x="319" y="109"/>
      <point x="319" y="109" type="curve"/>
      <point x="204" y="109" type="line" smooth="yes"/>
      <point x="201" y="109"/>
      <point x="199" y="110"/>
      <point x="197" y="112" type="curve" smooth="yes"/>
      <point x="-81" y="505" type="line" smooth="yes"/>
      <point x="-84" y="511"/>
      <point x="-80" y="518"/>
      <point x="-74" y="518" type="curve" smooth="yes"/>
      <point x="29" y="518" type="line"/>
      <point x="29" y="518"/>
      <point x="29" y="518"/>
      <point x="29" y="518" type="curve"/>
      <point x="102" y="518"/>
      <point x="172" y="480"/>
      <point x="213" y="423" type="curve" smooth="yes"/>
      <point x="213" y="423"/>
      <point x="212" y="423"/>
      <point x="212" y="423" type="curve" smooth="yes"/>
      <point x="261" y="356"/>
      <point x="233" y="312"/>
      <point x="158" y="312" type="curve"/>
    </contour>
    <contour>
      <point x="234" y="156" type="line"/>
      <point x="211" y="113" type="line" smooth="yes"/>
      <point x="211" y="113"/>
      <point x="210" y="112"/>
      <point x="210" y="112" type="curve" smooth="yes"/>
      <point x="171" y="68" type="line"/>
      <point x="159" y="78" type="line"/>
      <point x="198" y="122" type="line" smooth="yes"/>
      <point x="198" y="123"/>
      <point x="197" y="120"/>
      <point x="197" y="121" type="curve" smooth="yes"/>
      <point x="220" y="164" type="line"/>
    </contour>
    <contour>
      <point x="-172" y="561" type="line"/>
      <point x="-71" y="517" type="line" smooth="yes"/>
      <point x="-71" y="517"/>
      <point x="-71" y="517"/>
      <point x="-70" y="517" type="curve" smooth="yes"/>
      <point x="14" y="474" type="line"/>
      <point x="6" y="460" type="line"/>
      <point x="-78" y="503" type="line" smooth="yes"/>
      <point x="-78" y="503"/>
      <point x="-77" y="503"/>
      <point x="-77" y="503" type="curve" smooth="yes"/>
      <point x="-178" y="547" type="line"/>
    </contour>
    <contour>
      <point x="89" y="356" type="line"/>
      <point x="68" y="316" type="line" smooth="yes"/>
      <point x="66" y="312"/>
      <point x="61" y="329"/>
      <point x="65" y="327" type="curve" smooth="yes"/>
      <point x="145" y="285" type="line"/>
      <point x="137" y="271" type="line"/>
      <point x="57" y="313" type="line" smooth="yes"/>
      <point x="53" y="315"/>
      <point x="52" y="320"/>
      <point x="54" y="324" type="curve" smooth="yes"/>
      <point x="75" y="364" type="line"/>
    </contour>
    <contour>
      <point x="61" y="328" type="line"/>
      <point x="161" y="328" type="line" smooth="yes"/>
      <point x="161" y="328"/>
      <point x="161" y="328"/>
      <point x="161" y="328" type="curve" smooth="yes"/>
      <point x="271" y="331" type="line"/>
      <point x="271" y="315" type="line"/>
      <point x="161" y="312" type="line" smooth="yes"/>
      <point x="161" y="312"/>
      <point x="161" y="312"/>
      <point x="161" y="312" type="curve" smooth="yes"/>
      <point x="61" y="312" type="line"/>
    </contour>
  </outline>
</glyph>
<glyph name="H" format="2">
  <advance width="497"/>
  <unicode hex="0048"/>
  <outline>
    <contour>
      <point x="-67" y="515" type="line"/>
      <point x="65" y="329" type="line" smooth="yes"/>
      <point x="65" y="329"/>
      <point x="65" y="329"/>
      <point x="65" y="329" type="curve" smooth="yes"/>
      <point x="211" y="122" type="line"/>
      <point x="197" y="112" type="line"/>
      <point x="51" y="319" type="line" smooth="yes"/>
      <point x="51" y="319"/>
      <point x="51" y="319"/>
      <point x="51" y="319" type="curve" smooth="yes"/>
      <point x="-81" y="505" type="line"/>
    </contour>
    <contour>
      <point x="210" y="515" type="line"/>
      <point x="342" y="329" type="line" smooth="yes"/>
      <point x="342" y="329"/>
      <point x="342" y="329"/>
      <point x="342" y="329" type="curve" smooth="yes"/>
      <point x="488" y="122" type="line"/>
      <point x="474" y="112" type="line"/>
      <point x="328" y="319" type="line" smooth="yes"/>
      <point x="328" y="319"/>
      <point x="328" y="319"/>
      <point x="328" y="319" type="curve" smooth="yes"/>
      <point x="196" y="505" type="line"/>
    </contour>
    <contour>
      <point x="335" y="316" type="line"/>
      <point x="58" y="316" type="line"/>
      <point x="58" y="332" type="line"/>
      <point x="335" y="332" type="line"/>
    </contour>
    <contour>
      <point x="83" y="366" type="line"/>
      <point x="65" y="321" type="line" smooth="yes"/>
      <point x="64" y="317"/>
      <point x="58" y="333"/>
      <point x="62" y="331" type="curve" smooth="yes"/>
      <point x="144" y="286" type="line"/>
      <point x="136" y="272" type="line"/>
      <point x="54" y="317" type="line" smooth="yes"/>
      <point x="51" y="319"/>
      <point x="49" y="323"/>
      <point x="51" y="327" type="curve" smooth="yes"/>
      <point x="69" y="372" type="line"/>
    </contour>
    <contour>
      <point x="302" y="66" type="line"/>
      <point x="201" y="110" type="line" smooth="yes"/>
      <point x="198" y="111"/>
      <point x="212" y="114"/>
      <point x="210" y="112" type="curve" smooth="yes"/>
      <point x="171" y="68" type="line"/>
      <point x="159" y="78" type="line"/>
      <point x="198" y="122" type="line" smooth="yes"/>
      <point x="200" y="125"/>
      <point x="204" y="126"/>
      <point x="207" y="124" type="curve" smooth="yes"/>
      <point x="308" y="80" type="line"/>
    </contour>
    <contour>
      <point x="-172" y="561" type="line"/>
      <point x="-71" y="517" type="line" smooth="yes"/>
      <point x="-68" y="516"/>
      <point x="-82" y="513"/>
      <point x="-80" y="515" type="curve" smooth="yes"/>
      <point x="-41" y="559" type="line"/>
      <point x="-29" y="549" type="line"/>
      <point x="-68" y="505" type="line" smooth="yes"/>
      <point x="-70" y="502"/>
      <point x="-74" y="501"/>
      <point x="-77" y="503" type="curve" smooth="yes"/>
      <point x="-178" y="547" type="line"/>
    </contour>
    <contour>
      <point x="309" y="282" type="line"/>
      <point x="328" y="327" type="line" smooth="yes"/>
      <point x="329" y="331"/>
      <point x="335" y="315"/>
      <point x="331" y="317" type="curve" smooth="yes"/>
      <point x="249" y="362" type="line"/>
      <point x="257" y="376" type="line"/>
      <point x="339" y="331" type="line" smooth="yes"/>
      <point x="342" y="329"/>
      <point x="344" y="325"/>
      <point x="342" y="321" type="curve" smooth="yes"/>
      <point x="323" y="276" type="line"/>
    </contour>
    <contour>
      <point x="579" y="66" type="line"/>
      <point x="478" y="110" type="line" smooth="yes"/>
      <point x="475" y="111"/>
      <point x="489" y="114"/>
      <point x="487" y="112" type="curve" smooth="yes"/>
      <point x="448" y="68" type="line"/>
      <point x="436" y="78" type="line"/>
      <point x="475" y="122" type="line" smooth="yes"/>
      <point x="477" y="125"/>
      <point x="481" y="126"/>
      <point x="484" y="124" type="curve" smooth="yes"/>
      <point x="585" y="80" type="line"/>
    </contour>
    <contour>
      <point x="105" y="561" type="line"/>
      <point x="206" y="517" type="line" smooth="yes"/>
      <point x="209" y="516"/>
      <point x="195" y="513"/>
      <point x="197" y="515" type="curve" smooth="yes"/>
      <point x="236" y="559" type="line"/>
      <point x="248" y="549" type="line"/>
      <point x="209" y="505" type="line" smooth="yes"/>
      <point x="207" y="502"/>
      <point x="203" y="501"/>
      <point x="200" y="503" type="curve" smooth="yes"/>
      <point x="99" y="547" type="line"/>
    </contour>
  </outline>
</glyph>
<glyph name="W" format="2">
  <advance width="660"/>
  <unicode hex="0057"/>
  <outline>
    <contour>
      <point x="370" y="66" type="line"/>
      <point x="298" y="117" type="line" smooth="yes"/>
      <point x="293" y="121"/>
      <point x="312" y="129"/>
      <point x="311" y="123" type="curve" smooth="yes"/>
      <point x="304" y="72" type="line"/>
      <point x="288" y="74" type="line"/>
      <point x="295" y="125" type="line" smooth="yes"/>
      <point x="296" y="131"/>
      <point x="303" y="134"/>
      <point x="308" y="131" type="curve" smooth="yes"/>
      <point x="380" y="80" type="line"/>
    </contour>
    <contour>
      <point x="-202" y="561" type="line"/>
      <point x="-86" y="517" type="line" smooth="yes"/>
      <point x="-83" y="516"/>
      <point x="-97" y="513"/>
      <point x="-95" y="515" type="curve" smooth="yes"/>
      <point x="-56" y="559" type="line"/>
      <point x="-44" y="549" type="line"/>
      <point x="-83" y="505" type="line" smooth="yes"/>
      <point x="-85" y="502"/>
      <point x="-89" y="501"/>
      <point x="-92" y="503" type="curve" smooth="yes"/>
      <point x="-208" y="547" type="line"/>
    </contour>
    <contour>
      <point x="610" y="66" type="line"/>
      <point x="534" y="117" type="line" smooth="yes"/>
      <point x="529" y="121"/>
      <point x="547" y="129"/>
      <point x="546" y="123" type="curve" smooth="yes"/>
      <point x="541" y="72" type="line"/>
      <point x="525" y="74" type="line"/>
      <point x="530" y="125" type="line" smooth="yes"/>
      <point x="531" y="131"/>
      <point x="537" y="134"/>
      <point x="542" y="131" type="curve" smooth="yes"/>
      <point x="618" y="80" type="line"/>
    </contour>
    <contour>
      <point x="74" y="561" type="line"/>
      <point x="159" y="510" type="line" smooth="yes"/>
      <point x="164" y="507"/>
      <point x="146" y="501"/>
      <point x="147" y="506" type="curve" smooth="yes"/>
      <point x="164" y="557" type="line"/>
      <point x="180" y="551" type="line"/>
      <point x="163" y="500" type="line" smooth="yes"/>
      <point x="161" y="496"/>
      <point x="155" y="494"/>
      <point x="151" y="496" type="curve" smooth="yes"/>
      <point x="66" y="547" type="line"/>
    </contour>
    <contour>
      <point x="291" y="561" type="line"/>
      <point x="389" y="517" type="line" smooth="yes"/>
      <point x="392" y="516"/>
      <point x="378" y="514"/>
      <point x="381" y="516" type="curve" smooth="yes"/>
      <point x="430" y="560" type="line"/>
      <point x="440" y="548" type="line"/>
      <point x="391" y="504" type="line" smooth="yes"/>
      <point x="389" y="502"/>
      <point x="386" y="501"/>
      <point x="383" y="503" type="curve" smooth="yes"/>
      <point x="285" y="547" type="line"/>
    </contour>
    <contour>
      <point x="393" y="513" type="line"/>
      <point x="545" y="127" type="line" smooth="yes"/>
      <point x="549" y="119"/>
      <point x="539" y="112"/>
      <point x="532" y="118" type="curve" smooth="yes"/>
      <point x="149" y="497" type="line" smooth="yes"/>
      <point x="143" y="503"/>
      <point x="159" y="514"/>
      <point x="162" y="506" type="curve" smooth="yes"/>
      <point x="310" y="127" type="line" smooth="yes"/>
      <point x="314" y="119"/>
      <point x="304" y="112"/>
      <point x="297" y="118" type="curve" smooth="yes"/>
      <point x="-95" y="504" type="line"/>
      <point x="-83" y="516" type="line"/>
      <point x="309" y="130" type="line" smooth="yes"/>
      <point x="315" y="124"/>
      <point x="299" y="113"/>
      <point x="296" y="121" type="curve" smooth="yes"/>
      <point x="148" y="500" type="line" smooth="yes"/>
      <point x="144" y="508"/>
      <point x="154" y="515"/>
      <point x="161" y="509" type="curve" smooth="yes"/>
      <point x="544" y="130" type="line" smooth="yes"/>
      <point x="550" y="124"/>
      <point x="534" y="113"/>
      <point x="531" y="121" type="curve" smooth="yes"/>
      <point x="379" y="507" type="line"/>
    </contour>
    <contour>
      <point x="207" y="280" type="line"/>
      <point x="310" y="129" type="line"/>
      <point x="296" y="119" type="line"/>
      <point x="193" y="270" type="line"/>
    </contour>
    <contour>
      <point x="439" y="282" type="line"/>
      <point x="545" y="129" type="line"/>
      <point x="531" y="119" type="line"/>
      <point x="425" y="272" type="line"/>
    </contour>
    <contour>
      <point x="162" y="508" type="line"/>
      <point x="267" y="354" type="line"/>
      <point x="253" y="344" type="line"/>
      <point x="148" y="498" type="line"/>
    </contour>
  </outline>
</glyph>
<glyph name="bracketleft" format="2">
  <advance width="323"/>
  <unicode hex="005B"/>
  <outline>
    <contour>
      <point x="501" y="-29" type="line"/>
      <point x="433" y="6"/>
      <point x="351" y="29"/>
      <point x="278" y="33" type="curve" smooth="yes"/>
      <point x="275" y="33"/>
      <point x="273" y="34"/>
      <point x="271" y="36" type="curve" smooth="yes"/>
      <point x="-114" y="581" type="line" smooth="yes"/>
      <point x="-117" y="587"/>
      <point x="-114" y="594"/>
      <point x="-107" y="594" type="curve" smooth="yes"/>
      <point x="-43" y="598"/>
      <point x="6" y="619"/>
      <point x="23" y="653" type="curve"/>
      <point x="37" y="647" type="line"/>
      <point x="18" y="607"/>
      <point x="-33" y="582"/>
      <point x="-107" y="578" type="curve" smooth="yes"/>
      <point x="-113" y="578"/>
      <point x="-104" y="596"/>
      <point x="-100" y="591" type="curve" smooth="yes"/>
      <point x="285" y="46" type="line" smooth="yes"/>
      <point x="286" y="44"/>
      <point x="276" y="49"/>
      <point x="278" y="49" type="curve" smooth="yes"/>
      <point x="355" y="45"/>
      <point x="439" y="22"/>
      <point x="509" y="-15" type="curve"/>
    </contour>
    <contour>
      <point x="-209" y="642" type="line"/>
      <point x="-104" y="593" type="line" smooth="yes"/>
      <point x="-104" y="593"/>
      <point x="-103" y="593"/>
      <point x="-103" y="593" type="curve" smooth="yes"/>
      <point x="-19" y="549" type="line"/>
      <point x="-27" y="535" type="line"/>
      <point x="-111" y="579" type="line" smooth="yes"/>
      <point x="-111" y="579"/>
      <point x="-110" y="579"/>
      <point x="-110" y="579" type="curve" smooth="yes"/>
      <point x="-215" y="628" type="line"/>
    </contour>
    <contour>
      <point x="307" y="81" type="line"/>
      <point x="285" y="37" type="line" smooth="yes"/>
      <point x="285" y="37"/>
      <point x="285" y="37"/>
      <point x="285" y="36" type="curve" smooth="yes"/>
      <point x="250" y="-13" type="line"/>
      <point x="236" y="-3" type="line"/>
      <point x="271" y="46" type="line" smooth="yes"/>
      <point x="272" y="46"/>
      <point x="271" y="44"/>
      <point x="271" y="45" type="curve" smooth="yes"/>
      <point x="293" y="89" type="line"/>
    </contour>
  </outline>
</glyph>
<glyph name="bracketright" format="2">
  <advance width="323"/>
  <unicode hex="005D"/>
  <outline>
    <contour>
      <point x="-268" y="657" type="line"/>
      <point x="-200" y="622"/>
      <point x="-118" y="599"/>
      <point x="-45" y="595" type="curve" smooth="yes"/>
      <point x="-42" y="595"/>
      <point x="-40" y="594"/>
      <point x="-38" y="592" type="curve" smooth="yes"/>
      <point x="347" y="47" type="line" smooth="yes"/>
      <point x="350" y="41"/>
      <point x="347" y="34"/>
      <point x="340" y="34" type="curve" smooth="yes"/>
      <point x="276" y="30"/>
      <point x="227" y="9"/>
      <point x="210" y="-25" type="curve"/>
      <point x="196" y="-19" type="line"/>
      <point x="215" y="21"/>
      <point x="266" y="46"/>
      <point x="340" y="50" type="curve" smooth="yes"/>
      <point x="346" y="50"/>
      <point x="337" y="32"/>
      <point x="333" y="37" type="curve" smooth="yes"/>
      <point x="-52" y="582" type="line" smooth="yes"/>
      <point x="-53" y="584"/>
      <point x="-43" y="579"/>
      <point x="-45" y="579" type="curve" smooth="yes"/>
      <point x="-122" y="583"/>
      <point x="-206" y="606"/>
      <point x="-276" y="643" type="curve"/>
    </contour>
    <contour>
      <point x="442" y="-14" type="line"/>
      <point x="337" y="35" type="line" smooth="yes"/>
      <point x="337" y="35"/>
      <point x="336" y="35"/>
      <point x="336" y="35" type="curve" smooth="yes"/>
      <point x="252" y="79" type="line"/>
      <point x="260" y="93" type="line"/>
      <point x="344" y="49" type="line" smooth="yes"/>
      <point x="344" y="49"/>
      <point x="343" y="49"/>
      <point x="343" y="49" type="curve" smooth="yes"/>
      <point x="448" y="0" type="line"/>
    </contour>
    <contour>
      <point x="-74" y="547" type="line"/>
      <point x="-52" y="591" type="line" smooth="yes"/>
      <point x="-52" y="591"/>
      <point x="-52" y="591"/>
      <point x="-52" y="592" type="curve" smooth="yes"/>
      <point x="-17" y="641" type="line"/>
      <point x="-3" y="631" type="line"/>
      <point x="-38" y="582" type="line" smooth="yes"/>
      <point x="-39" y="582"/>
      <point x="-38" y="584"/>
      <point x="-38" y="583" type="curve" smooth="yes"/>
      <point x="-60" y="539" type="line"/>
    </contour>
  </outline>
</glyph>
<glyph name="braceleft" format="2">
  <advance width="325"/>
  <unicode hex="007B"/>
  <outline>
    <contour>
      <point x="5" y="601" type="line"/>
      <point x="-84" y="618"/>
      <point x="-111" y="597"/>
      <point x="-73" y="543" type="curve"/>
      <point x="-73" y="543"/>
      <point x="-73" y="543"/>
      <point x="-73" y="543" type="curve"/>
      <point x="-39" y="493"/>
      <point x="46" y="427"/>
      <point x="75" y="387" type="curve" smooth="yes"/>
      <point x="75" y="387"/>
      <point x="75" y="387"/>
      <point x="75" y="387" type="curve" smooth="yes"/>
      <point x="110" y="336"/>
      <point x="100" y="306"/>
      <point x="33" y="306" type="curve" smooth="yes"/>
      <point x="22" y="306"/>
      <point x="22" y="322"/>
      <point x="33" y="322" type="curve" smooth="yes"/>
      <point x="96" y="322"/>
      <point x="136" y="299"/>
      <point x="170" y="252" type="curve" smooth="yes"/>
      <point x="170" y="252"/>
      <point x="169" y="252"/>
      <point x="169" y="252" type="curve" smooth="yes"/>
      <point x="198" y="212"/>
      <point x="208" y="144"/>
      <point x="243" y="97" type="curve" smooth="yes"/>
      <point x="243" y="97"/>
      <point x="243" y="97"/>
      <point x="243" y="97" type="curve" smooth="yes"/>
      <point x="284" y="38"/>
      <point x="352" y="11"/>
      <point x="420" y="29" type="curve"/>
      <point x="424" y="13" type="line"/>
      <point x="350" y="-7"/>
      <point x="274" y="24"/>
      <point x="229" y="87" type="curve" smooth="yes"/>
      <point x="229" y="87"/>
      <point x="229" y="87"/>
      <point x="229" y="87" type="curve" smooth="yes"/>
      <point x="194" y="137"/>
      <point x="184" y="204"/>
      <point x="157" y="242" type="curve" smooth="yes"/>
      <point x="156" y="242"/>
      <point x="156" y="242"/>
      <point x="156" y="242" type="curve" smooth="yes"/>
      <point x="126" y="285"/>
      <point x="90" y="306"/>
      <point x="33" y="306" type="curve" smooth="yes"/>
      <point x="22" y="306"/>
      <point x="22" y="322"/>
      <point x="33" y="322" type="curve" smooth="yes"/>
      <point x="86" y="322"/>
      <point x="90" y="338"/>
      <point x="61" y="377" type="curve" smooth="yes"/>
      <point x="61" y="377"/>
      <point x="61" y="377"/>
      <point x="61" y="377" type="curve" smooth="yes"/>
      <point x="34" y="417"/>
      <point x="-51" y="483"/>
      <point x="-87" y="533" type="curve"/>
      <point x="-87" y="533"/>
      <point x="-87" y="533"/>
      <point x="-87" y="533" type="curve"/>
      <point x="-132" y="599"/>
      <point x="-99" y="638"/>
      <point x="9" y="617" type="curve"/>
    </contour>
    <contour>
      <point x="33" y="322" type="line"/>
      <point x="112" y="322" type="line"/>
      <point x="112" y="306" type="line"/>
      <point x="33" y="306" type="line"/>
    </contour>
    <contour>
      <point x="-36" y="362" type="line"/>
      <point x="37" y="321" type="line" smooth="yes"/>
      <point x="40" y="319"/>
      <point x="42" y="315"/>
      <point x="40" y="311" type="curve" smooth="yes"/>
      <point x="25" y="271" type="line"/>
      <point x="11" y="277" type="line"/>
      <point x="26" y="317" type="line" smooth="yes"/>
      <point x="27" y="321"/>
      <point x="33" y="305"/>
      <point x="29" y="307" type="curve" smooth="yes"/>
      <point x="-44" y="348" type="line"/>
    </contour>
    <contour>
      <point x="30" y="644" type="line"/>
      <point x="14" y="606" type="line" smooth="yes"/>
      <point x="13" y="602"/>
      <point x="9" y="618"/>
      <point x="12" y="615" type="curve" smooth="yes"/>
      <point x="101" y="550" type="line"/>
      <point x="91" y="538" type="line"/>
      <point x="2" y="603" type="line" smooth="yes"/>
      <point x="-1" y="605"/>
      <point x="-2" y="609"/>
      <point x="0" y="612" type="curve" smooth="yes"/>
      <point x="16" y="650" type="line"/>
    </contour>
    <contour>
      <point x="429" y="85" type="line"/>
      <point x="430" y="21" type="line" smooth="yes"/>
      <point x="430" y="18"/>
      <point x="423" y="29"/>
      <point x="426" y="28" type="curve" smooth="yes"/>
      <point x="498" y="-11" type="line"/>
      <point x="490" y="-25" type="line"/>
      <point x="418" y="14" type="line" smooth="yes"/>
      <point x="416" y="15"/>
      <point x="414" y="18"/>
      <point x="414" y="21" type="curve" smooth="yes"/>
      <point x="413" y="85" type="line"/>
    </contour>
  </outline>
</glyph>
<glyph name="exclamdown" format="2">
  <advance width="205"/>
  <unicode hex="00A1"/>
  <outline>
    <contour>
      <point x="21" y="433" type="line"/>
      <point x="-76" y="490" type="line"/>
      <point x="-76" y="490"/>
      <point x="-76" y="490"/>
      <point x="-76" y="490" type="curve"/>
      <point x="-173" y="547" type="line"/>
      <point x="-165" y="561" type="line"/>
      <point x="-68" y="504" type="line"/>
      <point x="-68" y="504"/>
      <point x="-68" y="504"/>
      <point x="-68" y="504" type="curve"/>
      <point x="29" y="447" type="line"/>
    </contour>
    <contour>
      <point x="-48" y="552" type="line"/>
      <point x="-64" y="495" type="line" smooth="yes"/>
      <point x="-64" y="495"/>
      <point x="-64" y="495"/>
      <point x="-64" y="495" type="curve" smooth="yes"/>
      <point x="-81" y="438" type="line"/>
      <point x="-97" y="442" type="line"/>
      <point x="-80" y="499" type="line" smooth="yes"/>
      <point x="-80" y="499"/>
      <point x="-80" y="499"/>
      <point x="-80" y="499" type="curve" smooth="yes"/>
      <point x="-64" y="556" type="line"/>
    </contour>
    <contour>
      <point x="46" y="345" type="line"/>
      <point x="204" y="122" type="line"/>
      <point x="190" y="112" type="line"/>
      <point x="32" y="335" type="line"/>
    </contour>
    <contour>
      <point x="-18" y="379" type="line"/>
      <point x="43" y="347" type="line" smooth="yes"/>
      <point x="47" y="345"/>
      <point x="30" y="339"/>
      <point x="32" y="343" type="curve" smooth="yes"/>
      <point x="47" y="375" type="line"/>
      <point x="61" y="369" type="line"/>
      <point x="46" y="337" type="line" smooth="yes"/>
      <point x="44" y="332"/>
      <point x="39" y="331"/>
      <point x="35" y="333" type="curve" smooth="yes"/>
      <point x="-26" y="365" type="line"/>
    </contour>
    <contour>
      <point x="291" y="66" type="line"/>
      <point x="194" y="110" type="line" smooth="yes"/>
      <point x="190" y="111"/>
      <point x="205" y="115"/>
      <point x="203" y="112" type="curve" smooth="yes"/>
      <point x="167" y="68" type="line"/>
      <point x="155" y="78" type="line"/>
      <point x="191" y="122" type="line" smooth="yes"/>
      <point x="193" y="125"/>
      <point x="197" y="126"/>
      <point x="200" y="124" type="curve" smooth="yes"/>
      <point x="297" y="80" type="line"/>
    </contour>
  </outline>
</glyph>
<glyph name="copyright" format="2">
  <advance width="574"/>
  <unicode hex="00A9"/>
  <outline>
    <contour>
      <point x="395" y="90" type="curve"/>
      <point x="395" y="90"/>
      <point x="395" y="90"/>
      <point x="395" y="90" type="curve"/>
      <point x="267" y="90"/>
      <point x="109" y="182"/>
      <point x="19" y="309" type="curve" smooth="yes"/>
      <point x="19" y="309"/>
      <point x="19" y="309"/>
      <point x="19" y="309" type="curve" smooth="yes"/>
      <point x="-73" y="439"/>
      <point x="-42" y="537"/>
      <point x="90" y="537" type="curve"/>
      <point x="90" y="537"/>
      <point x="90" y="537"/>
      <point x="90" y="537" type="curve"/>
      <point x="217" y="537"/>
      <point x="375" y="445"/>
      <point x="465" y="319" type="curve" smooth="yes"/>
      <point x="465" y="319"/>
      <point x="465" y="319"/>
      <point x="465" y="319" type="curve" smooth="yes"/>
      <point x="557" y="187"/>
      <point x="526" y="90"/>
    </contour>
    <contour>
      <point x="352" y="215" type="line"/>
      <point x="293" y="203"/>
      <point x="212" y="240"/>
      <point x="163" y="309" type="curve" smooth="yes"/>
      <point x="163" y="309"/>
      <point x="164" y="309"/>
      <point x="164" y="309" type="curve" smooth="yes"/>
      <point x="112" y="381"/>
      <point x="146" y="427"/>
      <point x="224" y="412" type="curve"/>
      <point x="220" y="396" type="line"/>
      <point x="156" y="409"/>
      <point x="134" y="377"/>
      <point x="176" y="319" type="curve" smooth="yes"/>
      <point x="177" y="319"/>
      <point x="177" y="319"/>
      <point x="177" y="319" type="curve" smooth="yes"/>
      <point x="220" y="256"/>
      <point x="295" y="219"/>
      <point x="348" y="231" type="curve"/>
    </contour>
    <contour>
      <point x="395" y="106" type="curve"/>
      <point x="514" y="106"/>
      <point x="535" y="191"/>
      <point x="451" y="309" type="curve" smooth="yes"/>
      <point x="451" y="309"/>
      <point x="451" y="309"/>
      <point x="451" y="309" type="curve" smooth="yes"/>
      <point x="365" y="431"/>
      <point x="213" y="521"/>
      <point x="90" y="521" type="curve"/>
      <point x="90" y="521"/>
      <point x="90" y="521"/>
      <point x="90" y="521" type="curve"/>
      <point x="-30" y="521"/>
      <point x="-51" y="436"/>
      <point x="33" y="319" type="curve" smooth="yes"/>
      <point x="33" y="319"/>
      <point x="33" y="319"/>
      <point x="33" y="319" type="curve" smooth="yes"/>
      <point x="119" y="196"/>
      <point x="271" y="106"/>
      <point x="395" y="106" type="curve"/>
      <point x="395" y="106"/>
      <point x="395" y="106"/>
    </contour>
    <contour>
      <point x="249" y="422" type="line"/>
      <point x="228" y="399" type="line" smooth="yes"/>
      <point x="225" y="395"/>
      <point x="223" y="413"/>
      <point x="227" y="411" type="curve" smooth="yes"/>
      <point x="300" y="360" type="line"/>
      <point x="290" y="346" type="line"/>
      <point x="217" y="397" type="line" smooth="yes"/>
      <point x="213" y="400"/>
      <point x="213" y="406"/>
      <point x="216" y="409" type="curve" smooth="yes"/>
      <point x="237" y="432" type="line"/>
    </contour>
    <contour>
      <point x="358" y="275" type="line"/>
      <point x="358" y="223" type="line" smooth="yes"/>
      <point x="358" y="220"/>
      <point x="350" y="232"/>
      <point x="353" y="230" type="curve" smooth="yes"/>
      <point x="406" y="208" type="line"/>
      <point x="400" y="194" type="line"/>
      <point x="347" y="216" type="line" smooth="yes"/>
      <point x="344" y="217"/>
      <point x="342" y="220"/>
      <point x="342" y="223" type="curve" smooth="yes"/>
      <point x="342" y="275" type="line"/>
    </contour>
  </outline>
</glyph>
<glyph name="mu.math" format="2">
  <advance width="419"/>
  <unicode hex="00B5"/>
  <outline>
    <contour>
      <point x="259" y="-1" type="line"/>
      <point x="-18" y="390" type="line"/>
      <point x="-4" y="400" type="line"/>
      <point x="273" y="9" type="line"/>
    </contour>
    <contour>
      <point x="409" y="112" type="line"/>
      <point x="213" y="390" type="line"/>
      <point x="227" y="400" type="line"/>
      <point x="423" y="122" type="line"/>
    </contour>
    <contour>
      <point x="108" y="242" type="line"/>
      <point x="161" y="166"/>
      <point x="242" y="117"/>
      <point x="307" y="117" type="curve"/>
      <point x="307" y="117"/>
      <point x="307" y="117"/>
      <point x="307" y="117" type="curve"/>
      <point x="367" y="117"/>
      <point x="376" y="161"/>
      <point x="325" y="232" type="curve"/>
      <point x="339" y="242" type="line"/>
      <point x="398" y="157"/>
      <point x="379" y="101"/>
      <point x="307" y="101" type="curve"/>
      <point x="307" y="101"/>
      <point x="307" y="101"/>
      <point x="307" y="101" type="curve"/>
      <point x="238" y="101"/>
      <point x="151" y="152"/>
      <point x="94" y="232" type="curve"/>
    </contour>
    <contour>
      <point x="382" y="87" type="line"/>
      <point x="396" y="110"/>
      <point x="375" y="161"/>
      <point x="325" y="232" type="curve"/>
      <point x="339" y="242" type="line"/>
      <point x="398" y="156"/>
      <point x="412" y="106"/>
      <point x="396" y="79" type="curve"/>
    </contour>
    <contour>
      <point x="108" y="242" type="line"/>
      <point x="163" y="164"/>
      <point x="213" y="116"/>
      <point x="264" y="91" type="curve"/>
      <point x="256" y="77" type="line"/>
      <point x="205" y="102"/>
      <point x="151" y="152"/>
      <point x="94" y="232" type="curve"/>
    </contour>
    <contour>
      <point x="344" y="-47" type="line"/>
      <point x="262" y="-3" type="line" smooth="yes"/>
      <point x="258" y="-1"/>
      <point x="275" y="5"/>
      <point x="273" y="1" type="curve" smooth="yes"/>
      <point x="252" y="-43" type="line"/>
      <point x="238" y="-37" type="line"/>
      <point x="259" y="7" type="line" smooth="yes"/>
      <point x="261" y="12"/>
      <point x="266" y="13"/>
      <point x="270" y="11" type="curve" smooth="yes"/>
      <point x="352" y="-33" type="line"/>
    </contour>
    <contour>
      <point x="494" y="66" type="line"/>
      <point x="412" y="110" type="line" smooth="yes"/>
      <point x="408" y="112"/>
      <point x="425" y="118"/>
      <point x="423" y="114" type="curve" smooth="yes"/>
      <point x="403" y="70" type="line"/>
      <point x="389" y="76" type="line"/>
      <point x="409" y="120" type="line" smooth="yes"/>
      <point x="411" y="125"/>
      <point x="416" y="126"/>
      <point x="420" y="124" type="curve" smooth="yes"/>
      <point x="502" y="80" type="line"/>
    </contour>
    <contour>
      <point x="-89" y="446" type="line"/>
      <point x="-7" y="402" type="line" smooth="yes"/>
      <point x="-3" y="400"/>
      <point x="-20" y="394"/>
      <point x="-18" y="398" type="curve" smooth="yes"/>
      <point x="2" y="442" type="line"/>
      <point x="16" y="436" type="line"/>
      <point x="-4" y="392" type="line" smooth="yes"/>
      <point x="-6" y="387"/>
      <point x="-11" y="386"/>
      <point x="-15" y="388" type="curve" smooth="yes"/>
      <point x="-97" y="432" type="line"/>
    </contour>
    <contour>
      <point x="141" y="446" type="line"/>
      <point x="224" y="402" type="line" smooth="yes"/>
      <point x="228" y="400"/>
      <point x="211" y="394"/>
      <point x="213" y="398" type="curve" smooth="yes"/>
      <point x="233" y="442" type="line"/>
      <point x="247" y="436" type="line"/>
      <point x="227" y="392" type="line" smooth="yes"/>
      <point x="225" y="387"/>
      <point x="220" y="386"/>
      <point x="216" y="388" type="curve" smooth="yes"/>
      <point x="133" y="432" type="line"/>
    </contour>
  </outline>
</glyph>
<glyph name="periodcentered" format="2">
  <advance width="205"/>
  <unicode hex="00B7"/>
  <outline>
    <contour>
      <point x="-30" y="370" type="line"/>
      <point x="66" y="314" type="line" smooth="yes"/>
      <point x="66" y="314"/>
      <point x="66" y="314"/>
      <point x="66" y="314" type="curve" smooth="yes"/>
      <point x="164" y="256" type="line"/>
      <point x="156" y="242" type="line"/>
      <point x="58" y="300" type="line" smooth="yes"/>
      <point x="58" y="300"/>
      <point x="58" y="300"/>
      <point x="58" y="300" type="curve" smooth="yes"/>
      <point x="-38" y="356" type="line"/>
    </contour>
    <contour>
      <point x="38" y="251" type="line"/>
      <point x="54" y="309" type="line" smooth="yes"/>
      <point x="54" y="309"/>
      <point x="54" y="309"/>
      <point x="54" y="309" type="curve" smooth="yes"/>
      <point x="71" y="365" type="line"/>
      <point x="87" y="361" type="line"/>
      <point x="70" y="305" type="line" smooth="yes"/>
      <point x="70" y="305"/>
      <point x="70" y="305"/>
      <point x="70" y="305" type="curve" smooth="yes"/>
      <point x="54" y="247" type="line"/>
    </contour>
  </outline>
</glyph>
<glyph name="threequarters" format="2">
  <advance width="678"/>
  <unicode hex="00BE"/>
  <outline>
    <contour>
      <point x="285" y="518" type="line"/>
      <point x="326" y="111" type="line"/>
      <point x="310" y="109" type="line"/>
      <point x="269" y="516" type="line"/>
    </contour>
    <contour>
      <point x="361" y="67" type="line"/>
      <point x="313" y="104" type="line" smooth="yes"/>
      <point x="310" y="106"/>
      <point x="326" y="107"/>
      <point x="323" y="104" type="curve" smooth="yes"/>
      <point x="282" y="67" type="line"/>
      <point x="272" y="79" type="line"/>
      <point x="313" y="116" type="line" smooth="yes"/>
      <point x="316" y="119"/>
      <point x="320" y="119"/>
      <point x="323" y="116" type="curve" smooth="yes"/>
      <point x="371" y="79" type="line"/>
    </contour>
    <contour>
      <point x="234" y="560" type="line"/>
      <point x="282" y="523" type="line" smooth="yes"/>
      <point x="285" y="521"/>
      <point x="269" y="520"/>
      <point x="272" y="523" type="curve" smooth="yes"/>
      <point x="313" y="560" type="line"/>
      <point x="323" y="548" type="line"/>
      <point x="282" y="511" type="line" smooth="yes"/>
      <point x="279" y="508"/>
      <point x="275" y="508"/>
      <point x="272" y="511" type="curve" smooth="yes"/>
      <point x="224" y="548" type="line"/>
    </contour>
    <contour>
      <point x="666" y="105" type="line"/>
      <point x="512" y="323" type="line" smooth="yes"/>
      <point x="511" y="326"/>
      <point x="522" y="320"/>
      <point x="519" y="320" type="curve" smooth="yes"/>
      <point x="460" y="320" type="line" smooth="yes"/>
      <point x="455" y="320"/>
      <point x="467" y="335"/>
      <point x="468" y="330" type="curve" smooth="yes"/>
      <point x="499" y="174" type="line" smooth="yes"/>
      <point x="500" y="170"/>
      <point x="487" y="180"/>
      <point x="491" y="180" type="curve" smooth="yes"/>
      <point x="675" y="180" type="line"/>
      <point x="675" y="164" type="line"/>
      <point x="491" y="164" type="line" smooth="yes"/>
      <point x="487" y="164"/>
      <point x="484" y="167"/>
      <point x="483" y="170" type="curve" smooth="yes"/>
      <point x="452" y="326" type="line" smooth="yes"/>
      <point x="451" y="331"/>
      <point x="455" y="336"/>
      <point x="460" y="336" type="curve" smooth="yes"/>
      <point x="519" y="336" type="line" smooth="yes"/>
      <point x="522" y="336"/>
      <point x="524" y="335"/>
      <point x="526" y="333" type="curve" smooth="yes"/>
      <point x="680" y="115" type="line"/>
    </contour>
    <contour>
      <point x="454" y="146" type="line"/>
      <point x="485" y="178" type="line" smooth="yes"/>
      <point x="485" y="178"/>
      <point x="485" y="178"/>
      <point x="485" y="178" type="curve" smooth="yes"/>
      <point x="517" y="209" type="line"/>
      <point x="529" y="197" type="line"/>
      <point x="497" y="166" type="line" smooth="yes"/>
      <point x="497" y="166"/>
      <point x="497" y="166"/>
      <point x="497" y="166" type="curve" smooth="yes"/>
      <point x="466" y="134" type="line"/>
    </contour>
    <contour>
      <point x="427" y="368" type="line"/>
      <point x="465" y="334" type="line" smooth="yes"/>
      <point x="465" y="334"/>
      <point x="465" y="334"/>
      <point x="465" y="334" type="curve" smooth="yes"/>
      <point x="506" y="300" type="line" smooth="yes"/>
      <point x="510" y="297"/>
      <point x="492" y="293"/>
      <point x="494" y="298" type="curve" smooth="yes"/>
      <point x="512" y="332" type="line" smooth="yes"/>
      <point x="512" y="332"/>
      <point x="513" y="333"/>
      <point x="513" y="333" type="curve" smooth="yes"/>
      <point x="543" y="367" type="line"/>
      <point x="555" y="357" type="line"/>
      <point x="525" y="323" type="line" smooth="yes"/>
      <point x="525" y="322"/>
      <point x="526" y="325"/>
      <point x="526" y="324" type="curve" smooth="yes"/>
      <point x="508" y="290" type="line" smooth="yes"/>
      <point x="506" y="286"/>
      <point x="500" y="285"/>
      <point x="496" y="288" type="curve" smooth="yes"/>
      <point x="455" y="322" type="line" smooth="yes"/>
      <point x="455" y="322"/>
      <point x="455" y="322"/>
      <point x="455" y="322" type="curve" smooth="yes"/>
      <point x="417" y="356" type="line"/>
    </contour>
    <contour>
      <point x="689" y="212" type="line"/>
      <point x="683" y="171" type="line" smooth="yes"/>
      <point x="682" y="168"/>
      <point x="677" y="180"/>
      <point x="679" y="179" type="curve" smooth="yes"/>
      <point x="743" y="138" type="line"/>
      <point x="735" y="124" type="line"/>
      <point x="671" y="165" type="line" smooth="yes"/>
      <point x="668" y="167"/>
      <point x="667" y="170"/>
      <point x="667" y="173" type="curve" smooth="yes"/>
      <point x="673" y="214" type="line"/>
    </contour>
    <contour>
      <point x="654" y="201" type="line"/>
      <point x="637" y="168" type="line" smooth="yes"/>
      <point x="637" y="168"/>
      <point x="637" y="168"/>
      <point x="637" y="168" type="curve" smooth="yes"/>
      <point x="617" y="136" type="line"/>
      <point x="603" y="144" type="line"/>
      <point x="623" y="176" type="line" smooth="yes"/>
      <point x="623" y="176"/>
      <point x="623" y="175"/>
      <point x="623" y="176" type="curve" smooth="yes"/>
      <point x="640" y="209" type="line"/>
    </contour>
    <contour>
      <point x="569" y="210" type="line"/>
      <point x="633" y="179" type="line" smooth="yes"/>
      <point x="634" y="179"/>
      <point x="634" y="179"/>
      <point x="634" y="179" type="curve" smooth="yes"/>
      <point x="699" y="146" type="line"/>
      <point x="691" y="132" type="line"/>
      <point x="626" y="165" type="line" smooth="yes"/>
      <point x="626" y="165"/>
      <point x="627" y="165"/>
      <point x="627" y="165" type="curve" smooth="yes"/>
      <point x="563" y="196" type="line"/>
    </contour>
    <contour>
      <point x="750" y="66" type="line"/>
      <point x="670" y="103" type="line" smooth="yes"/>
      <point x="666" y="104"/>
      <point x="682" y="108"/>
      <point x="679" y="105" type="curve" smooth="yes"/>
      <point x="651" y="68" type="line"/>
      <point x="639" y="78" type="line"/>
      <point x="667" y="115" type="line" smooth="yes"/>
      <point x="669" y="118"/>
      <point x="673" y="119"/>
      <point x="676" y="117" type="curve" smooth="yes"/>
      <point x="756" y="80" type="line"/>
    </contour>
    <contour>
      <point x="53" y="305" type="line"/>
      <point x="70" y="300"/>
      <point x="87" y="298"/>
      <point x="101" y="298" type="curve"/>
      <point x="101" y="298"/>
      <point x="101" y="298"/>
      <point x="101" y="298" type="curve"/>
      <point x="146" y="298"/>
      <point x="164" y="315"/>
      <point x="138" y="351" type="curve" smooth="yes"/>
      <point x="138" y="351"/>
      <point x="138" y="351"/>
      <point x="138" y="351" type="curve" smooth="yes"/>
      <point x="117" y="383"/>
      <point x="69" y="405"/>
      <point x="6" y="408" type="curve" smooth="yes"/>
      <point x="1" y="408"/>
      <point x="-2" y="412"/>
      <point x="-2" y="416" type="curve" smooth="yes"/>
      <point x="1" y="518" type="line" smooth="yes"/>
      <point x="1" y="523"/>
      <point x="14" y="510"/>
      <point x="9" y="510" type="curve" smooth="yes"/>
      <point x="-40" y="510"/>
      <point x="-73" y="509"/>
      <point x="-98" y="507" type="curve"/>
      <point x="-100" y="523" type="line"/>
      <point x="-73" y="525"/>
      <point x="-40" y="526"/>
      <point x="9" y="526" type="curve" smooth="yes"/>
      <point x="14" y="526"/>
      <point x="17" y="522"/>
      <point x="17" y="518" type="curve" smooth="yes"/>
      <point x="14" y="416" type="line" smooth="yes"/>
      <point x="14" y="411"/>
      <point x="2" y="424"/>
      <point x="6" y="424" type="curve" smooth="yes"/>
      <point x="77" y="421"/>
      <point x="127" y="395"/>
      <point x="152" y="361" type="curve" smooth="yes"/>
      <point x="152" y="361"/>
      <point x="151" y="361"/>
      <point x="152" y="361" type="curve" smooth="yes"/>
      <point x="185" y="313"/>
      <point x="160" y="282"/>
      <point x="101" y="282" type="curve"/>
      <point x="101" y="282"/>
      <point x="101" y="282"/>
      <point x="101" y="282" type="curve"/>
      <point x="85" y="282"/>
      <point x="68" y="284"/>
      <point x="49" y="289" type="curve"/>
    </contour>
    <contour>
      <point x="-110" y="470" type="line"/>
      <point x="-107" y="516" type="line" smooth="yes"/>
      <point x="-107" y="518"/>
      <point x="-101" y="507"/>
      <point x="-103" y="508" type="curve" smooth="yes"/>
      <point x="-166" y="547" type="line"/>
      <point x="-158" y="561" type="line"/>
      <point x="-95" y="522" type="line" smooth="yes"/>
      <point x="-92" y="520"/>
      <point x="-91" y="517"/>
      <point x="-91" y="514" type="curve" smooth="yes"/>
      <point x="-94" y="468" type="line"/>
    </contour>
    <contour>
      <point x="29" y="272" type="line"/>
      <point x="44" y="301" type="line" smooth="yes"/>
      <point x="46" y="304"/>
      <point x="49" y="288"/>
      <point x="46" y="291" type="curve" smooth="yes"/>
      <point x="-28" y="347" type="line"/>
      <point x="-18" y="359" type="line"/>
      <point x="56" y="303" type="line" smooth="yes"/>
      <point x="59" y="301"/>
      <point x="60" y="297"/>
      <point x="58" y="293" type="curve" smooth="yes"/>
      <point x="43" y="264" type="line"/>
    </contour>
    <contour>
      <point x="-36" y="395" type="line"/>
      <point x="1" y="422" type="line" smooth="yes"/>
      <point x="1" y="423"/>
      <point x="1" y="423"/>
      <point x="2" y="423" type="curve" smooth="yes"/>
      <point x="39" y="448" type="line"/>
      <point x="47" y="434" type="line"/>
      <point x="10" y="409" type="line" smooth="yes"/>
      <point x="10" y="409"/>
      <point x="11" y="410"/>
      <point x="11" y="410" type="curve" smooth="yes"/>
      <point x="-26" y="383" type="line"/>
    </contour>
    <contour>
      <point x="-36" y="487" type="line"/>
      <point x="3" y="524" type="line" smooth="yes"/>
      <point x="4" y="524"/>
      <point x="4" y="524"/>
      <point x="4" y="524" type="curve" smooth="yes"/>
      <point x="43" y="560" type="line"/>
      <point x="53" y="548" type="line"/>
      <point x="14" y="512" type="line" smooth="yes"/>
      <point x="14" y="512"/>
      <point x="15" y="512"/>
      <point x="15" y="512" type="curve" smooth="yes"/>
      <point x="-24" y="475" type="line"/>
    </contour>
  </outline>
</glyph>
<glyph name="AE" format="2">
  <advance width="628"/>
  <unicode hex="00C6"/>
  <outline>
    <contour>
      <point x="623" y="114" type="line"/>
      <point x="574" y="110"/>
      <point x="495" y="108"/>
      <point x="444" y="109" type="curve" smooth="yes"/>
      <point x="441" y="109"/>
      <point x="439" y="110"/>
      <point x="437" y="112" type="curve" smooth="yes"/>
      <point x="159" y="505" type="line"/>
      <point x="173" y="515" type="line"/>
      <point x="451" y="122" type="line" smooth="yes"/>
      <point x="452" y="120"/>
      <point x="442" y="125"/>
      <point x="444" y="125" type="curve" smooth="yes"/>
      <point x="495" y="124"/>
      <point x="574" y="126"/>
      <point x="621" y="130" type="curve"/>
    </contour>
    <contour>
      <point x="463" y="313" type="line"/>
      <point x="300" y="313" type="line"/>
      <point x="300" y="329" type="line"/>
      <point x="463" y="329" type="line"/>
    </contour>
    <contour>
      <point x="473" y="158" type="line"/>
      <point x="451" y="113" type="line" smooth="yes"/>
      <point x="451" y="113"/>
      <point x="450" y="112"/>
      <point x="450" y="112" type="curve" smooth="yes"/>
      <point x="411" y="68" type="line"/>
      <point x="399" y="78" type="line"/>
      <point x="438" y="122" type="line" smooth="yes"/>
      <point x="438" y="123"/>
      <point x="436" y="120"/>
      <point x="437" y="121" type="curve" smooth="yes"/>
      <point x="459" y="166" type="line"/>
    </contour>
    <contour>
      <point x="369" y="553" type="line"/>
      <point x="360" y="504" type="line" smooth="yes"/>
      <point x="359" y="500"/>
      <point x="354" y="513"/>
      <point x="357" y="512" type="curve" smooth="yes"/>
      <point x="444" y="451" type="line"/>
      <point x="434" y="437" type="line"/>
      <point x="347" y="498" type="line" smooth="yes"/>
      <point x="345" y="500"/>
      <point x="344" y="503"/>
      <point x="344" y="506" type="curve" smooth="yes"/>
      <point x="353" y="555" type="line"/>
    </contour>
    <contour>
      <point x="639" y="190" type="line"/>
      <point x="630" y="121" type="line" smooth="yes"/>
      <point x="630" y="118"/>
      <point x="624" y="130"/>
      <point x="626" y="129" type="curve" smooth="yes"/>
      <point x="704" y="80" type="line"/>
      <point x="696" y="66" type="line"/>
      <point x="618" y="115" type="line" smooth="yes"/>
      <point x="615" y="117"/>
      <point x="614" y="120"/>
      <point x="614" y="123" type="curve" smooth="yes"/>
      <point x="623" y="192" type="line"/>
    </contour>
    <contour>
      <point x="474" y="379" type="line"/>
      <point x="471" y="321" type="line" smooth="yes"/>
      <point x="471" y="318"/>
      <point x="465" y="329"/>
      <point x="468" y="328" type="curve" smooth="yes"/>
      <point x="553" y="270" type="line"/>
      <point x="543" y="256" type="line"/>
      <point x="458" y="314" type="line" smooth="yes"/>
      <point x="456" y="316"/>
      <point x="455" y="319"/>
      <point x="455" y="321" type="curve" smooth="yes"/>
      <point x="458" y="379" type="line"/>
    </contour>
    <contour>
      <point x="327" y="360" type="line"/>
      <point x="307" y="318" type="line" smooth="yes"/>
      <point x="305" y="314"/>
      <point x="300" y="330"/>
      <point x="304" y="328" type="curve" smooth="yes"/>
      <point x="384" y="285" type="line"/>
      <point x="376" y="271" type="line"/>
      <point x="296" y="314" type="line" smooth="yes"/>
      <point x="292" y="316"/>
      <point x="291" y="321"/>
      <point x="293" y="324" type="curve" smooth="yes"/>
      <point x="313" y="366" type="line"/>
    </contour>
    <contour>
      <point x="374" y="208" type="line"/>
      <point x="154" y="208" type="line"/>
      <point x="154" y="224" type="line"/>
      <point x="374" y="224" type="line"/>
    </contour>
    <contour>
      <point x="170" y="120" type="line"/>
      <point x="163" y="142"/>
      <point x="155" y="171"/>
      <point x="146" y="214" type="curve" smooth="yes"/>
      <point x="146" y="214"/>
      <point x="146" y="214"/>
      <point x="146" y="214" type="curve" smooth="yes"/>
      <point x="131" y="285"/>
      <point x="100" y="425"/>
      <point x="77" y="508" type="curve" smooth="yes"/>
      <point x="76" y="513"/>
      <point x="80" y="518"/>
      <point x="85" y="518" type="curve" smooth="yes"/>
      <point x="166" y="518" type="line"/>
      <point x="166" y="518"/>
      <point x="166" y="518"/>
      <point x="166" y="518" type="curve"/>
      <point x="223" y="518"/>
      <point x="301" y="517"/>
      <point x="353" y="513" type="curve"/>
      <point x="351" y="497" type="line"/>
      <point x="301" y="501"/>
      <point x="223" y="502"/>
      <point x="166" y="502" type="curve"/>
      <point x="166" y="502"/>
      <point x="166" y="502"/>
      <point x="166" y="502" type="curve"/>
      <point x="85" y="502" type="line" smooth="yes"/>
      <point x="80" y="502"/>
      <point x="91" y="517"/>
      <point x="93" y="512" type="curve" smooth="yes"/>
      <point x="116" y="429"/>
      <point x="147" y="289"/>
      <point x="162" y="218" type="curve" smooth="yes"/>
      <point x="162" y="218"/>
      <point x="162" y="218"/>
      <point x="162" y="218" type="curve" smooth="yes"/>
      <point x="171" y="175"/>
      <point x="179" y="146"/>
      <point x="186" y="126" type="curve"/>
    </contour>
    <contour>
      <point x="270" y="66" type="line"/>
      <point x="174" y="116" type="line" smooth="yes"/>
      <point x="171" y="117"/>
      <point x="186" y="119"/>
      <point x="183" y="117" type="curve" smooth="yes"/>
      <point x="127" y="67" type="line"/>
      <point x="117" y="79" type="line"/>
      <point x="173" y="129" type="line" smooth="yes"/>
      <point x="175" y="131"/>
      <point x="179" y="132"/>
      <point x="182" y="130" type="curve" smooth="yes"/>
      <point x="278" y="80" type="line"/>
    </contour>
    <contour>
      <point x="22" y="561" type="line"/>
      <point x="89" y="517" type="line" smooth="yes"/>
      <point x="90" y="517"/>
      <point x="90" y="516"/>
      <point x="90" y="516" type="curve" smooth="yes"/>
      <point x="153" y="467" type="line" smooth="yes"/>
      <point x="157" y="464"/>
      <point x="139" y="459"/>
      <point x="140" y="464" type="curve" smooth="yes"/>
      <point x="158" y="513" type="line" smooth="yes"/>
      <point x="160" y="517"/>
      <point x="165" y="519"/>
      <point x="170" y="517" type="curve" smooth="yes"/>
      <point x="255" y="473" type="line"/>
      <point x="247" y="459" type="line"/>
      <point x="162" y="503" type="line" smooth="yes"/>
      <point x="158" y="505"/>
      <point x="175" y="512"/>
      <point x="174" y="507" type="curve" smooth="yes"/>
      <point x="156" y="458" type="line" smooth="yes"/>
      <point x="154" y="453"/>
      <point x="147" y="451"/>
      <point x="143" y="455" type="curve" smooth="yes"/>
      <point x="80" y="504" type="line" smooth="yes"/>
      <point x="80" y="504"/>
      <point x="81" y="503"/>
      <point x="81" y="503" type="curve" smooth="yes"/>
      <point x="14" y="547" type="line"/>
    </contour>
    <contour>
      <point x="201" y="256" type="line"/>
      <point x="160" y="211" type="line" smooth="yes"/>
      <point x="157" y="207"/>
      <point x="154" y="225"/>
      <point x="158" y="223" type="curve" smooth="yes"/>
      <point x="225" y="179" type="line"/>
      <point x="217" y="165" type="line"/>
      <point x="150" y="209" type="line" smooth="yes"/>
      <point x="145" y="212"/>
      <point x="145" y="218"/>
      <point x="148" y="221" type="curve" smooth="yes"/>
      <point x="189" y="266" type="line"/>
    </contour>
    <contour>
      <point x="345" y="176" type="line"/>
      <point x="367" y="220" type="line" smooth="yes"/>
      <point x="369" y="223"/>
      <point x="374" y="207"/>
      <point x="370" y="209" type="curve" smooth="yes"/>
      <point x="288" y="254" type="line"/>
      <point x="296" y="268" type="line"/>
      <point x="378" y="223" type="line" smooth="yes"/>
      <point x="382" y="221"/>
      <point x="383" y="216"/>
      <point x="381" y="212" type="curve" smooth="yes"/>
      <point x="359" y="168" type="line"/>
    </contour>
  </outline>
</glyph>
<glyph name="multiply" format="2">
  <advance width="379"/>
  <unicode hex="00D7"/>
  <outline>
    <contour>
      <point x="309" y="195" type="line"/>
      <point x="157" y="284" type="line"/>
      <point x="157" y="284"/>
      <point x="157" y="284"/>
      <point x="157" y="284" type="curve"/>
      <point x="5" y="373" type="line"/>
      <point x="13" y="387" type="line"/>
      <point x="165" y="298" type="line"/>
      <point x="165" y="298"/>
      <point x="165" y="298"/>
      <point x="165" y="298" type="curve"/>
      <point x="317" y="209" type="line"/>
    </contour>
    <contour>
      <point x="195" y="378" type="line"/>
      <point x="169" y="289" type="line"/>
      <point x="169" y="289"/>
      <point x="169" y="289"/>
      <point x="169" y="289" type="curve"/>
      <point x="143" y="200" type="line"/>
      <point x="127" y="204" type="line"/>
      <point x="153" y="293" type="line"/>
      <point x="153" y="293"/>
      <point x="153" y="293"/>
      <point x="153" y="293" type="curve"/>
      <point x="179" y="382" type="line"/>
    </contour>
    <contour>
      <point x="175" y="130" type="line"/>
      <point x="128" y="197" type="line" smooth="yes"/>
      <point x="127" y="200"/>
      <point x="137" y="194"/>
      <point x="135" y="194" type="curve" smooth="yes"/>
      <point x="68" y="195" type="line"/>
      <point x="68" y="211" type="line"/>
      <point x="135" y="210" type="line" smooth="yes"/>
      <point x="138" y="210"/>
      <point x="140" y="209"/>
      <point x="142" y="207" type="curve" smooth="yes"/>
      <point x="189" y="140" type="line"/>
    </contour>
    <contour>
      <point x="146" y="452" type="line"/>
      <point x="194" y="385" type="line" smooth="yes"/>
      <point x="195" y="383"/>
      <point x="185" y="388"/>
      <point x="187" y="388" type="curve" smooth="yes"/>
      <point x="254" y="387" type="line"/>
      <point x="254" y="371" type="line"/>
      <point x="187" y="372" type="line" smooth="yes"/>
      <point x="184" y="372"/>
      <point x="182" y="373"/>
      <point x="180" y="375" type="curve" smooth="yes"/>
      <point x="132" y="442" type="line"/>
    </contour>
    <contour>
      <point x="379" y="195" type="line"/>
      <point x="313" y="194" type="line" smooth="yes"/>
      <point x="307" y="194"/>
      <point x="316" y="212"/>
      <point x="320" y="207" type="curve" smooth="yes"/>
      <point x="366" y="140" type="line"/>
      <point x="352" y="130" type="line"/>
      <point x="306" y="197" type="line" smooth="yes"/>
      <point x="303" y="203"/>
      <point x="306" y="210"/>
      <point x="313" y="210" type="curve" smooth="yes"/>
      <point x="379" y="211" type="line"/>
    </contour>
    <contour>
      <point x="-57" y="387" type="line"/>
      <point x="9" y="388" type="line" smooth="yes"/>
      <point x="15" y="388"/>
      <point x="6" y="370"/>
      <point x="2" y="375" type="curve" smooth="yes"/>
      <point x="-45" y="442" type="line"/>
      <point x="-31" y="452" type="line"/>
      <point x="16" y="385" type="line" smooth="yes"/>
      <point x="19" y="379"/>
      <point x="16" y="372"/>
      <point x="9" y="372" type="curve" smooth="yes"/>
      <point x="-57" y="371" type="line"/>
    </contour>
    <contour>
      <point x="120" y="363" type="line"/>
      <point x="168" y="296" type="line" smooth="yes"/>
      <point x="168" y="296"/>
      <point x="168" y="296"/>
      <point x="168" y="296" type="curve" smooth="yes"/>
      <point x="215" y="229" type="line"/>
      <point x="201" y="219" type="line"/>
      <point x="154" y="286" type="line" smooth="yes"/>
      <point x="154" y="286"/>
      <point x="155" y="286"/>
      <point x="154" y="286" type="curve" smooth="yes"/>
      <point x="106" y="353" type="line"/>
    </contour>
    <contour>
      <point x="94" y="299" type="line"/>
      <point x="161" y="299" type="line"/>
      <point x="161" y="299"/>
      <point x="161" y="299"/>
      <point x="161" y="299" type="curve"/>
      <point x="228" y="299" type="line"/>
      <point x="228" y="283" type="line"/>
      <point x="161" y="283" type="line"/>
      <point x="161" y="283"/>
      <point x="161" y="283"/>
      <point x="161" y="283" type="curve"/>
      <point x="94" y="283" type="line"/>
    </contour>
  </outline>
</glyph>
<glyph name="quotesinglbase" format="2">
  <advance width="194"/>
  <unicode hex="201A"/>
  <outline>
    <contour>
      <point x="201" y="-15" type="line"/>
      <point x="228" y="30"/>
      <point x="211" y="85"/>
      <point x="173" y="138" type="curve"/>
      <point x="187" y="148" type="line"/>
      <point x="229" y="89"/>
      <point x="244" y="28"/>
      <point x="215" y="-23" type="curve"/>
    </contour>
    <contour>
      <point x="90" y="194" type="line"/>
      <point x="183" y="150" type="line" smooth="yes"/>
      <point x="187" y="148"/>
      <point x="171" y="143"/>
      <point x="173" y="147" type="curve" smooth="yes"/>
      <point x="198" y="191" type="line"/>
      <point x="212" y="183" type="line"/>
      <point x="187" y="139" type="line" smooth="yes"/>
      <point x="185" y="135"/>
      <point x="180" y="134"/>
      <point x="177" y="136" type="curve" smooth="yes"/>
      <point x="84" y="180" type="line"/>
    </contour>
  </outline>
</glyph>
<glyph name="quotedblbase" format="2">
  <advance width="353"/>
  <unicode hex="201E"/>
  <outline>
    <contour>
      <point x="201" y="-15" type="line"/>
      <point x="228" y="30"/>
      <point x="211" y="85"/>
      <point x="173" y="138" type="curve"/>
      <point x="187" y="148" type="line"/>
      <point x="229" y="89"/>
      <point x="244" y="28"/>
      <point x="215" y="-23" type="curve"/>
    </contour>
    <contour>
      <point x="90" y="194" type="line"/>
      <point x="183" y="150" type="line" smooth="yes"/>
      <point x="187" y="148"/>
      <point x="171" y="143"/>
      <point x="173" y="147" type="curve" smooth="yes"/>
      <point x="198" y="191" type="line"/>
      <point x="212" y="183" type="line"/>
      <point x="187" y="139" type="line" smooth="yes"/>
      <point x="185" y="135"/>
      <point x="180" y="134"/>
      <point x="177" y="136" type="curve" smooth="yes"/>
      <point x="84" y="180" type="line"/>
    </contour>
    <contour>
      <point x="360" y="-15" type="line"/>
      <point x="387" y="30"/>
      <point x="370" y="85"/>
      <point x="332" y="138" type="curve"/>
      <point x="346" y="148" type="line"/>
      <point x="388" y="89"/>
      <point x="403" y="28"/>
      <point x="374" y="-23" type="curve"/>
    </contour>
    <contour>
      <point x="249" y="194" type="line"/>
      <point x="342" y="150" type="line" smooth="yes"/>
      <point x="346" y="148"/>
      <point x="330" y="143"/>
      <point x="332" y="147" type="curve" smooth="yes"/>
      <point x="357" y="191" type="line"/>
      <point x="371" y="183" type="line"/>
      <point x="346" y="139" type="line" smooth="yes"/>
      <point x="344" y="135"/>
      <point x="339" y="134"/>
      <point x="336" y="136" type="curve" smooth="yes"/>
      <point x="243" y="180" type="line"/>
    </contour>
  </outline>
</glyph>
<glyph name="guilsinglleft" format="2">
  <advance width="306"/>
  <unicode hex="2039"/>
  <outline>
    <contour>
      <point x="120" y="483" type="line"/>
      <point x="121" y="403"/>
      <point x="105" y="339"/>
      <point x="73" y="283" type="curve" smooth="yes"/>
      <point x="71" y="279"/>
      <point x="65" y="296"/>
      <point x="70" y="294" type="curve" smooth="yes"/>
      <point x="178" y="240"/>
      <point x="282" y="178"/>
      <point x="394" y="99" type="curve"/>
      <point x="384" y="85" type="line"/>
      <point x="274" y="164"/>
      <point x="170" y="226"/>
      <point x="62" y="280" type="curve" smooth="yes"/>
      <point x="58" y="282"/>
      <point x="57" y="287"/>
      <point x="59" y="291" type="curve" smooth="yes"/>
      <point x="89" y="345"/>
      <point x="105" y="405"/>
      <point x="104" y="483" type="curve"/>
    </contour>
    <contour>
      <point x="-23" y="295" type="line"/>
      <point x="66" y="295" type="line"/>
      <point x="66" y="295"/>
      <point x="66" y="295"/>
      <point x="66" y="295" type="curve"/>
      <point x="154" y="295" type="line"/>
      <point x="154" y="279" type="line"/>
      <point x="66" y="279" type="line"/>
      <point x="66" y="279"/>
      <point x="66" y="279"/>
      <point x="66" y="279" type="curve"/>
      <point x="-23" y="279" type="line"/>
    </contour>
  </outline>
</glyph>
<glyph name="guilsinglright" format="2">
  <advance width="306"/>
  <unicode hex="203A"/>
  <outline>
    <contour>
      <point x="133" y="92" type="line"/>
      <point x="132" y="173"/>
      <point x="148" y="236"/>
      <point x="180" y="291" type="curve" smooth="yes"/>
      <point x="182" y="295"/>
      <point x="187" y="278"/>
      <point x="183" y="280" type="curve" smooth="yes"/>
      <point x="75" y="335"/>
      <point x="-29" y="397"/>
      <point x="-141" y="476" type="curve"/>
      <point x="-131" y="490" type="line"/>
      <point x="-21" y="411"/>
      <point x="83" y="349"/>
      <point x="191" y="294" type="curve" smooth="yes"/>
      <point x="195" y="292"/>
      <point x="196" y="287"/>
      <point x="194" y="283" type="curve" smooth="yes"/>
      <point x="164" y="230"/>
      <point x="148" y="169"/>
      <point x="149" y="92" type="curve"/>
    </contour>
    <contour>
      <point x="99" y="295" type="line"/>
      <point x="187" y="295" type="line"/>
      <point x="187" y="295"/>
      <point x="187" y="295"/>
      <point x="187" y="295" type="curve"/>
      <point x="276" y="295" type="line"/>
      <point x="276" y="279" type="line"/>
      <point x="187" y="279" type="line"/>
      <point x="187" y="279"/>
      <point x="187" y="279"/>
      <point x="187" y="279" type="curve"/>
      <point x="99" y="279" type="line"/>
    </contour>
  </outline>
</glyph>
